# xmcd
#
# Track frame offsets:
# 150
# 45822
# 77282
# 101819
# 123551
# 145524
# 169024
# 188835
# 206963
# 239904
# 262720
# 299505
#
# Disc length: 4516 seconds
#
# Revision: 0
# Processed by: cddbd v1.5.1PL2 Copyright (c) Steve Scherf et al.
# Submitted via: plextools 2.25
#
DISCID=a611a20c
DTITLE=TOSHIKI KADOMATSU - ２０ｔｈ　Ａｎｎｉｖｅｒｓａｒｙ　Ｌｉｖｅ　Ｄｉｓｋ３
DYEAR=1900
DGENRE=Rock
TTITLE0=崩壊の前日
TTITLE1=君をこえる日
TTITLE2=Ｉ　ＣＡＮ　ＧＩＶＥ　ＹＯＵ　ＭＹ　ＬＯＶＥ
TTITLE3=ＲＥＡＬＩＺＥ
TTITLE4=ＬＵＮＡＦＡＩＲＹＭＩＥＮＡ
TTITLE5=ＳＨＩＢＵＹＡ
TTITLE6=生足の駝鳥
TTITLE7=愛と修羅
TTITLE8=浜辺の歌
TTITLE9=ＴＡＫＥ　ＹＯＵ　ＴＯ　ＴＨＥ　ＳＫＹ　ＨＩＧＨ
TTITLE10=ＧＩＲＬ　ＩＮ　ＴＨＥ　ＢＯＸ
TTITLE11=ＮＯ　ＥＮＤ　ＳＵＭＭＥＲ
EXTD=
EXTT0=
EXTT1=
EXTT2=
EXTT3=
EXTT4=
EXTT5=
EXTT6=
EXTT7=
EXTT8=
EXTT9=
EXTT10=
EXTT11=
PLAYORDER=
